<svg xmlns="http://www.w3.org/2000/svg" width="2820" height="1960" viewBox="0 0 2820 1960">
  <rect width="2820" height="1960" fill="#EEF3FA"/>
  <text x="40" y="50" font-family="Segoe UI, Arial, sans-serif" font-size="28" font-weight="700" fill="#142235">IME-Friendly - Wireframes mobile (390x844)</text>

  <!-- Row 1 -->
  <!-- Screen 1 Login -->
  <g transform="translate(40,100)">
    <rect width="390" height="844" rx="24" ry="24" fill="#FFFFFF" stroke="#CBD7E7"/>
    <text x="24" y="56" font-family="Segoe UI, Arial, sans-serif" font-size="28" font-weight="700" fill="#142235">Connexion</text>
    <rect x="24" y="140" width="342" height="56" rx="12" fill="#F7FAFF" stroke="#D8E1EE"/>
    <text x="38" y="174" font-size="14" font-family="Segoe UI, Arial, sans-serif" fill="#4F627A">Email</text>
    <rect x="24" y="212" width="342" height="56" rx="12" fill="#F7FAFF" stroke="#D8E1EE"/>
    <text x="38" y="246" font-size="14" font-family="Segoe UI, Arial, sans-serif" fill="#4F627A">Mot de passe</text>
    <rect x="24" y="292" width="342" height="52" rx="14" fill="#1F63B5"/>
    <text x="195" y="325" text-anchor="middle" font-size="18" font-family="Segoe UI, Arial, sans-serif" fill="#FFFFFF">Se connecter</text>
    <text x="24" y="386" font-size="13" font-family="Segoe UI, Arial, sans-serif" fill="#1F63B5">Mot de passe oublie</text>
    <text x="24" y="420" font-size="13" font-family="Segoe UI, Arial, sans-serif" fill="#4F627A">Pas de compte ? Inscription</text>
  </g>

  <!-- Screen 2 Home -->
  <g transform="translate(500,100)">
    <rect width="390" height="844" rx="24" ry="24" fill="#FFFFFF" stroke="#CBD7E7"/>
    <rect x="0" y="0" width="390" height="92" rx="24" fill="#E7F0FD"/>
    <text x="24" y="56" font-family="Segoe UI, Arial, sans-serif" font-size="24" font-weight="700" fill="#142235">Accueil</text>
    <circle cx="352" cy="46" r="14" fill="#F05A7E"/>
    <text x="352" y="51" text-anchor="middle" font-size="11" font-family="Segoe UI, Arial, sans-serif" fill="#FFF">2</text>
    <rect x="24" y="118" width="342" height="128" rx="16" fill="#F7FAFF" stroke="#D8E1EE"/>
    <text x="38" y="148" font-size="16" font-weight="700" font-family="Segoe UI, Arial, sans-serif" fill="#142235">Vie de l'IME</text>
    <text x="38" y="176" font-size="13" font-family="Segoe UI, Arial, sans-serif" fill="#4F627A">Derniers posts intervenants</text>
    <rect x="24" y="266" width="164" height="106" rx="14" fill="#FFF7EC" stroke="#EFD3A6"/>
    <rect x="202" y="266" width="164" height="106" rx="14" fill="#EEF8F3" stroke="#CAE8DA"/>
    <rect x="24" y="386" width="164" height="106" rx="14" fill="#F3F0FF" stroke="#D8D0F3"/>
    <rect x="202" y="386" width="164" height="106" rx="14" fill="#FFEFF5" stroke="#F1CFDF"/>
    <rect x="24" y="512" width="342" height="130" rx="16" fill="#F7FAFF" stroke="#D8E1EE"/>
    <text x="38" y="542" font-size="16" font-weight="700" font-family="Segoe UI, Arial, sans-serif" fill="#142235">Agenda</text>
    <rect x="0" y="752" width="390" height="92" rx="20" fill="#FFFFFF" stroke="#D8E1EE"/>
    <text x="35" y="806" font-size="12" font-family="Segoe UI, Arial, sans-serif" fill="#1F63B5">Accueil</text>
    <text x="110" y="806" font-size="12" font-family="Segoe UI, Arial, sans-serif" fill="#4F627A">Reseau</text>
    <text x="185" y="806" font-size="12" font-family="Segoe UI, Arial, sans-serif" fill="#4F627A">Outils</text>
    <text x="258" y="806" font-size="12" font-family="Segoe UI, Arial, sans-serif" fill="#4F627A">Blog</text>
    <text x="334" y="806" font-size="12" font-family="Segoe UI, Arial, sans-serif" fill="#4F627A">Profil</text>
  </g>

  <!-- Screen 3 Reseau -->
  <g transform="translate(960,100)">
    <rect width="390" height="844" rx="24" ry="24" fill="#FFFFFF" stroke="#CBD7E7"/>
    <rect x="0" y="0" width="390" height="92" rx="24" fill="#FFE9F0"/>
    <text x="24" y="56" font-family="Segoe UI, Arial, sans-serif" font-size="24" font-weight="700" fill="#142235">Reseau</text>
    <rect x="24" y="112" width="342" height="52" rx="12" fill="#FFFFFF" stroke="#D8E1EE"/>
    <text x="38" y="145" font-size="14" font-family="Segoe UI, Arial, sans-serif" fill="#4F627A">Rechercher...</text>
    <rect x="24" y="184" width="342" height="180" rx="16" fill="#FFFFFF" stroke="#D8E1EE"/>
    <rect x="38" y="200" width="80" height="80" rx="10" fill="#E7F0FD"/>
    <text x="130" y="225" font-size="16" font-weight="700" font-family="Segoe UI, Arial, sans-serif" fill="#142235">Titre post</text>
    <text x="130" y="250" font-size="12" font-family="Segoe UI, Arial, sans-serif" fill="#4F627A">Auteur • date</text>
    <text x="38" y="330" font-size="13" font-family="Segoe UI, Arial, sans-serif" fill="#4F627A">Actions: Like • Commenter • Ouvrir</text>
    <rect x="24" y="378" width="342" height="180" rx="16" fill="#FFFFFF" stroke="#D8E1EE"/>
    <rect x="24" y="670" width="342" height="58" rx="16" fill="#1F63B5"/>
    <text x="195" y="707" text-anchor="middle" font-size="17" font-family="Segoe UI, Arial, sans-serif" fill="#FFFFFF">+ Creer un post</text>
    <rect x="0" y="752" width="390" height="92" rx="20" fill="#FFFFFF" stroke="#D8E1EE"/>
  </g>

  <!-- Screen 4 Blog -->
  <g transform="translate(1420,100)">
    <rect width="390" height="844" rx="24" ry="24" fill="#FFFFFF" stroke="#CBD7E7"/>
    <rect x="0" y="0" width="390" height="92" rx="24" fill="#EDF0F6"/>
    <text x="24" y="56" font-family="Segoe UI, Arial, sans-serif" font-size="24" font-weight="700" fill="#142235">Blog</text>
    <rect x="24" y="114" width="342" height="52" rx="12" fill="#FFFFFF" stroke="#D8E1EE"/>
    <text x="38" y="146" font-size="14" font-family="Segoe UI, Arial, sans-serif" fill="#4F627A">Rechercher par theme ou mot-cle</text>
    <rect x="24" y="182" width="342" height="146" rx="16" fill="#FFFFFF" stroke="#D8E1EE"/>
    <text x="38" y="212" font-size="16" font-weight="700" font-family="Segoe UI, Arial, sans-serif" fill="#142235">Titre article</text>
    <text x="38" y="236" font-size="12" font-family="Segoe UI, Arial, sans-serif" fill="#4F627A">Education • 07/05/2026</text>
    <text x="38" y="270" font-size="13" font-family="Segoe UI, Arial, sans-serif" fill="#4F627A">Extrait du contenu sur 3 lignes max...</text>
    <rect x="24" y="342" width="342" height="146" rx="16" fill="#FFFFFF" stroke="#D8E1EE"/>
    <rect x="24" y="502" width="342" height="146" rx="16" fill="#FFFFFF" stroke="#D8E1EE"/>
    <rect x="0" y="752" width="390" height="92" rx="20" fill="#FFFFFF" stroke="#D8E1EE"/>
  </g>

  <!-- Screen 5 Messages -->
  <g transform="translate(1880,100)">
    <rect width="390" height="844" rx="24" ry="24" fill="#FFFFFF" stroke="#CBD7E7"/>
    <rect x="0" y="0" width="390" height="92" rx="24" fill="#E7F0FD"/>
    <text x="24" y="56" font-family="Segoe UI, Arial, sans-serif" font-size="24" font-weight="700" fill="#142235">Messagerie</text>
    <rect x="24" y="112" width="342" height="58" rx="14" fill="#FFFFFF" stroke="#D8E1EE"/>
    <text x="38" y="147" font-size="14" font-family="Segoe UI, Arial, sans-serif" fill="#4F627A">Notifications (3)</text>
    <rect x="24" y="184" width="342" height="100" rx="14" fill="#FFFFFF" stroke="#D8E1EE"/>
    <rect x="24" y="296" width="342" height="100" rx="14" fill="#FFFFFF" stroke="#D8E1EE"/>
    <rect x="24" y="408" width="342" height="100" rx="14" fill="#FFFFFF" stroke="#D8E1EE"/>
    <rect x="24" y="528" width="342" height="200" rx="16" fill="#F7FAFF" stroke="#D8E1EE"/>
    <text x="38" y="560" font-size="14" font-family="Segoe UI, Arial, sans-serif" fill="#4F627A">Zone chat active</text>
    <rect x="0" y="752" width="390" height="92" rx="20" fill="#FFFFFF" stroke="#D8E1EE"/>
  </g>

  <!-- Screen 6 Profil -->
  <g transform="translate(2340,100)">
    <rect width="390" height="844" rx="24" ry="24" fill="#FFFFFF" stroke="#CBD7E7"/>
    <rect x="0" y="0" width="390" height="92" rx="24" fill="#EAF7F4"/>
    <text x="24" y="56" font-family="Segoe UI, Arial, sans-serif" font-size="24" font-weight="700" fill="#142235">Mon profil</text>
    <circle cx="195" cy="170" r="56" fill="#E7F0FD"/>
    <text x="195" y="176" text-anchor="middle" font-size="20" font-family="Segoe UI, Arial, sans-serif" fill="#1F63B5">Photo</text>
    <text x="195" y="252" text-anchor="middle" font-size="20" font-family="Segoe UI, Arial, sans-serif" font-weight="700" fill="#142235">Nom utilisateur</text>
    <text x="195" y="280" text-anchor="middle" font-size="14" font-family="Segoe UI, Arial, sans-serif" fill="#4F627A">Administrateur</text>
    <rect x="24" y="314" width="342" height="52" rx="12" fill="#FFFFFF" stroke="#D8E1EE"/>
    <text x="38" y="346" font-size="14" font-family="Segoe UI, Arial, sans-serif" fill="#4F627A">Modifier profil</text>
    <rect x="24" y="378" width="342" height="52" rx="12" fill="#FFFFFF" stroke="#D8E1EE"/>
    <text x="38" y="410" font-size="14" font-family="Segoe UI, Arial, sans-serif" fill="#4F627A">Changer mot de passe</text>
    <rect x="24" y="442" width="342" height="52" rx="12" fill="#FFFFFF" stroke="#D8E1EE"/>
    <text x="38" y="474" font-size="14" font-family="Segoe UI, Arial, sans-serif" fill="#4F627A">Gestion administrateur</text>
    <rect x="24" y="520" width="342" height="132" rx="16" fill="#F7FAFF" stroke="#D8E1EE"/>
    <text x="38" y="552" font-size="14" font-family="Segoe UI, Arial, sans-serif" fill="#4F627A">Mes favoris</text>
    <rect x="0" y="752" width="390" height="92" rx="20" fill="#FFFFFF" stroke="#D8E1EE"/>
  </g>

  <!-- Row 2 header -->
  <text x="40" y="1030" font-family="Segoe UI, Arial, sans-serif" font-size="24" font-weight="700" fill="#142235">Prototype flow (resume)</text>
  <rect x="40" y="1060" width="2730" height="340" rx="18" fill="#FFFFFF" stroke="#CBD7E7"/>
  <text x="70" y="1120" font-family="Segoe UI, Arial, sans-serif" font-size="17" fill="#142235">Auth: Splash -> Login -> Signup -> (valide) Home</text>
  <text x="70" y="1160" font-family="Segoe UI, Arial, sans-serif" font-size="17" fill="#142235">Home -> Reseau / Blog / Outils / Messages / Profil (bottom nav)</text>
  <text x="70" y="1200" font-family="Segoe UI, Arial, sans-serif" font-size="17" fill="#142235">Reseau/Blog/Outils -> Detail -> Commentaires -> Notification -> Messages</text>
  <text x="70" y="1240" font-family="Segoe UI, Arial, sans-serif" font-size="17" fill="#142235">Profil Admin -> Gestion admin -> Validation comptes / moderation / reset mdp</text>
  <text x="70" y="1300" font-family="Segoe UI, Arial, sans-serif" font-size="14" fill="#4F627A">Astuce: duplique ces wireframes dans Penpot puis transforme en UI finale avec les tokens.</text>
</svg>

